<svg width="398" height="444" viewBox="0 0 398 444" fill="none" xmlns="http://www.w3.org/2000/svg">
<path d="M379.695 410.205L355.695 170.701L37.1953 181.408L46.6953 443.454L379.695 410.205Z" fill="#F0ABAB"/>
<path d="M279.694 3.89316C256.894 -6.02514 108.195 3.89316 78.1945 23.6174C48.1945 43.3416 -6.80469 196.624 0.695312 210.149C8.19531 223.674 384.694 176.899 396.194 174.082C407.694 171.264 308.194 16.291 279.694 3.89316Z" fill="#DE3A3A"/>
<mask id="mask0_5511_5889" style="mask-type:alpha" maskUnits="userSpaceOnUse" x="0" y="0" width="398" height="213">
<path d="M279.694 3.89316C256.894 -6.02514 108.195 3.89316 78.1945 23.6174C48.1945 43.3416 -6.80469 196.624 0.695312 210.149C8.19531 223.674 384.694 176.899 396.194 174.082C407.694 171.264 308.194 16.291 279.694 3.89316Z" fill="#DE3A3A"/>
</mask>
<g mask="url(#mask0_5511_5889)">
<path d="M94.6727 -1.73085C84.7732 -0.241228 56.2296 141.646 43.1953 212.403H70.9139C82.9583 140.404 104.572 -3.22048 94.6727 -1.73085Z" fill="#BA2A2A"/>
<path d="M249.324 -21.2401C259.31 -21.1214 302.983 115.787 323.571 184.227L296.059 188.034C276.32 118.226 239.337 -21.3589 249.324 -21.2401Z" fill="#BA2A2A"/>
<path d="M208.347 -14.0293C218.194 -12.1512 242.327 130.772 253.162 201.999L225.46 200.908C215.653 128.48 198.499 -15.9074 208.347 -14.0293Z" fill="#BA2A2A"/>
<path d="M145.041 -15.0018C135.47 -11.7851 126.971 133.387 123.918 205.572L151.295 200.684C153.198 127.449 154.611 -18.2185 145.041 -15.0018Z" fill="#BA2A2A"/>
</g>
<path d="M232.153 257.486C151.353 257.486 170.82 373.861 190.653 432.048L287.153 421.904C302.486 367.098 312.953 257.486 232.153 257.486Z" fill="#D97B7B"/>
<path d="M257.695 218.602C205.295 192.453 161.196 218.602 159.696 242.27C158.196 265.939 242.695 247.798 260.195 234.944C265.695 242.27 279.695 245.088 289.195 232.69C271.195 229.873 274.695 210.149 283.695 201.695C281.195 199.629 272.495 200.117 257.695 218.602Z" fill="#68A3C5"/>
</svg>
