<svg width="242" height="258" viewBox="0 0 242 258" fill="none" xmlns="http://www.w3.org/2000/svg">
<g filter="url(#filter0_d_5511_5909)">
<path d="M188.756 18.7797C188.756 8.03626 173.413 -0.0353472 172.133 0.220858C170.853 0.477063 177.743 14.1025 175.582 21.0292L170.141 36.7761L164.7 88.5159C160.345 169.726 77 159 63 184C49 209 1.5 178 21.0594 150.121C33.2769 132.706 64.7067 137.797 64.7067 149.158C64.7067 165.412 78.8278 168.203 80.1115 149.158C81.3953 130.113 46.0926 109.23 15.9245 135.154C-14.2435 161.079 -1.39226 198.407 53.1528 209.655C61.0929 227.019 43.5644 249.425 121.836 249.425C200.107 249.425 196.847 258.79 215.434 249.425C234.02 240.061 229.988 224.937 229.988 209.655C229.988 194.372 219.878 186.128 219.878 186.128C229.023 151.784 211.615 88.0051 215.434 75.2543C218.634 64.5689 224.853 67.3761 229.988 64.5753C235.123 61.7745 238.541 62.3347 241.75 50.477C242.196 44.4459 239.183 41.8376 229.988 41.8376C224.411 41.8376 227.629 21.0292 205.164 21.0292C201.312 14.7218 205.805 2.39806 204.117 0.221005C202.43 -1.95605 191.685 12.517 188.756 18.7797Z" fill="#430202"/>
</g>
<defs>
<filter id="filter0_d_5511_5909" x="0" y="0" width="241.793" height="257.587" filterUnits="userSpaceOnUse" color-interpolation-filters="sRGB">
<feFlood flood-opacity="0" result="BackgroundImageFix"/>
<feColorMatrix in="SourceAlpha" type="matrix" values="0 0 0 0 0 0 0 0 0 0 0 0 0 0 0 0 0 0 127 0" result="hardAlpha"/>
<feOffset dy="4"/>
<feComposite in2="hardAlpha" operator="out"/>
<feColorMatrix type="matrix" values="0 0 0 0 0 0 0 0 0 0 0 0 0 0 0 0 0 0 0.25 0"/>
<feBlend mode="normal" in2="BackgroundImageFix" result="effect1_dropShadow_5511_5909"/>
<feBlend mode="normal" in="SourceGraphic" in2="effect1_dropShadow_5511_5909" result="shape"/>
</filter>
</defs>
</svg>
