<svg width="888" height="518" viewBox="0 0 888 518" fill="none" xmlns="http://www.w3.org/2000/svg">
<path opacity="0.25" d="M114.463 468.068C117.884 437.699 123.425 407.613 131.054 377.998C131.168 379.832 131.231 381.59 131.304 383.161C132.671 412.489 125.055 440.818 114.463 468.068ZM77.7699 482.473C78.175 482.008 78.4667 481.572 78.5902 481.185C81.6404 471.729 84.6884 462.272 87.7366 452.816C86.4626 463.542 85.1887 474.266 83.9147 484.992C83.6555 487.165 92.0283 484.197 97.0977 480.748C96.4597 486.788 95.9047 492.839 95.4328 498.898C89.6019 493.542 83.6535 488.08 77.7699 482.473ZM27.5781 419.42C29.49 418.454 31.4222 417.268 32.9837 416.041C36.0338 423.806 39.086 431.574 42.1381 439.34C42.6627 440.654 46.7154 439.54 50.7195 437.556C53.6097 445.202 55.8761 453.085 57.4943 461.201C57.8062 462.76 61.1054 461.578 64.6599 459.682C64.2184 462.548 63.8316 465.421 63.4812 468.301C49.233 453.47 36.3235 437.428 27.5781 419.42V419.42ZM52.8522 406.61C52.0522 406.92 51.1995 407.325 50.3307 407.789C48.5626 403.287 46.7964 398.788 45.0283 394.291C48.1311 398.112 50.673 402.259 52.8522 406.61V406.61ZM114.591 359.346C116.768 356.517 115.445 356.857 119.376 357.473C122.491 357.961 124.743 359.435 126.408 361.474C123.51 362.983 120.087 365.188 119.135 367.962C116.261 376.333 113.47 384.731 110.736 393.146C111.467 386.982 112.203 380.818 112.934 374.655C113.128 373.022 109.071 374.13 104.877 376.137C106.69 372.433 108.622 368.78 110.728 365.245C111.929 363.23 113.159 361.207 114.591 359.346V359.346ZM142.121 350.505C134.935 343.693 123.743 347.052 116.055 351.029C105.276 356.606 98.2278 365.129 92.4779 375.645C85.7963 387.863 80.3988 400.659 76.2853 413.862C71.2118 398.385 64.5323 383.688 50.5514 374.122C42.0956 368.333 31.489 365.364 21.4008 368.239C11.9101 370.947 0.633024 377.86 0.0720066 388.694C-1.16547 412.584 13.7694 437.288 27.7543 455.42C45.3079 478.176 66.9344 497.632 87.9209 517.132C89.6991 518.787 94.0779 516.926 97.9341 514.393C102.586 512.819 110.331 507.82 111.309 505.71C123.308 479.849 135.263 453.678 142.334 425.957C145.679 412.839 147.895 399.391 148.274 385.842C148.555 375.851 150.078 358.046 142.121 350.505" fill="#F00E46" fill-opacity="0.5"/>
<path opacity="0.25" d="M763.223 153.864C749.384 126.617 733.657 100.376 716.14 75.3083C716.676 77.0665 717.233 78.7348 717.715 80.2322C726.705 108.181 743.758 132.049 763.223 153.864ZM802.637 154.508C802.095 154.213 801.669 153.907 801.418 153.588C795.249 145.799 789.082 138.009 782.916 130.218C787.865 139.819 792.814 149.418 797.764 159.019C798.768 160.963 789.885 161.115 783.929 159.66C786.642 165.095 789.281 170.568 791.845 176.077C795.431 169.019 799.09 161.82 802.637 154.508ZM827.569 77.87C825.44 77.6348 823.215 77.2 821.322 76.5975C821.185 84.9396 821.046 93.2843 820.907 101.627C820.876 103.042 816.69 103.418 812.244 102.961C812.215 111.135 812.853 119.313 814.179 127.482C814.433 129.052 810.929 129.099 806.936 128.569C808.353 131.098 809.721 133.654 811.058 136.228C819.21 117.347 825.684 97.8002 827.569 77.87V77.87ZM799.41 74.7224C800.267 74.7324 801.208 74.8132 802.184 74.9432C802.264 70.1076 802.343 65.2746 802.424 60.4428C800.856 65.1085 799.927 69.8832 799.41 74.7224V74.7224ZM725.029 52.0719C721.999 50.1846 723.357 50.0401 719.89 51.9934C717.143 53.5414 715.55 55.7109 714.705 58.2039C717.948 58.602 721.926 59.4689 723.789 61.7341C729.413 68.5687 734.968 75.4569 740.476 82.3822C737.633 76.8646 734.785 71.3485 731.942 65.8309C731.188 64.3703 735.376 63.987 740.008 64.3978C737.013 61.5635 733.924 58.8185 730.712 56.2444C728.882 54.7778 727.022 53.3135 725.029 52.0719V52.0719ZM696.146 53.432C700.491 44.5349 712.151 43.7621 720.745 44.7948C732.794 46.2436 742.381 51.7587 751.449 59.5947C761.987 68.6996 771.523 78.7948 780 89.7209C779.332 73.4475 780.442 57.3419 790.187 43.4856C796.08 35.1017 804.975 28.6066 815.432 27.767C825.27 26.9793 838.254 29.5054 842.573 39.4564C852.099 61.4006 846.761 89.7709 840.011 111.652C831.539 139.114 818.095 164.912 805.267 190.527C804.181 192.699 799.427 192.489 794.928 191.467C790.02 191.623 781.014 189.652 779.359 188.018C759.064 167.997 738.701 147.67 722.37 124.18C714.642 113.065 707.857 101.245 702.758 88.6865C698.995 79.4266 691.333 63.2821 696.146 53.432" fill="#F00E46" fill-opacity="0.5"/>
</svg>
