<svg width="2773" height="189" viewBox="0 0 2773 189" fill="none" xmlns="http://www.w3.org/2000/svg">
<rect x="6" y="6" width="2760.9" height="177" fill="#B46C6C" stroke="#612727" stroke-width="12"/>
<mask id="mask0_6148_5604" style="mask-type:alpha" maskUnits="userSpaceOnUse" x="0" y="0" width="2773" height="189">
<rect x="6" y="6" width="2760.9" height="177" fill="#B46C6C" stroke="#612727" stroke-width="12"/>
</mask>
<g mask="url(#mask0_6148_5604)">
<rect x="699.598" y="12" width="72.1413" height="31" fill="#9A5858" fill-opacity="0.46"/>
<rect x="699.598" y="80" width="72.1413" height="31" fill="#9A5858" fill-opacity="0.46"/>
<rect x="699.598" y="148" width="72.1413" height="31" fill="#9A5858" fill-opacity="0.46"/>
<rect x="727.748" y="46" width="72.1413" height="31" fill="#9A5858" fill-opacity="0.46"/>
<rect x="727.748" y="114" width="72.1413" height="31" fill="#9A5858" fill-opacity="0.46"/>
<rect x="625.271" y="12" width="72.1413" height="31" fill="#9A5858" fill-opacity="0.46"/>
<rect x="625.271" y="80" width="72.1413" height="31" fill="#9A5858" fill-opacity="0.46"/>
<rect x="625.271" y="148" width="72.1413" height="31" fill="#9A5858" fill-opacity="0.46"/>
<rect x="655.002" y="46" width="72.1413" height="31" fill="#9A5858" fill-opacity="0.46"/>
<rect x="655.002" y="114" width="72.1413" height="31" fill="#9A5858" fill-opacity="0.46"/>
<rect x="655.002" y="182" width="72.1413" height="31" fill="#9A5858" fill-opacity="0.46"/>
<rect x="2097.87" y="12" width="72.1413" height="31" fill="#9A5858" fill-opacity="0.46"/>
<rect x="2097.87" y="80" width="72.1413" height="31" fill="#9A5858" fill-opacity="0.46"/>
<rect x="2097.87" y="148" width="72.1413" height="31" fill="#9A5858" fill-opacity="0.46"/>
<rect x="2127.6" y="46" width="72.1413" height="31" fill="#9A5858" fill-opacity="0.46"/>
<rect x="2127.6" y="114" width="72.1413" height="31" fill="#9A5858" fill-opacity="0.46"/>
<rect x="2025.12" y="12" width="72.1413" height="31" fill="#9A5858" fill-opacity="0.46"/>
<rect x="2025.12" y="80" width="72.1413" height="31" fill="#9A5858" fill-opacity="0.46"/>
<rect x="2025.12" y="148" width="72.1413" height="31" fill="#9A5858" fill-opacity="0.46"/>
<rect x="2053.27" y="46" width="72.1413" height="31" fill="#9A5858" fill-opacity="0.46"/>
<rect x="2053.27" y="114" width="72.1413" height="31" fill="#9A5858" fill-opacity="0.46"/>
<rect x="2053.27" y="182" width="72.1413" height="31" fill="#9A5858" fill-opacity="0.46"/>
<rect x="183.676" y="12" width="72.1413" height="31" fill="#9A5858" fill-opacity="0.71"/>
<rect x="183.676" y="80" width="72.1413" height="31" fill="#9A5858" fill-opacity="0.71"/>
<rect x="183.676" y="148" width="72.1413" height="31" fill="#9A5858" fill-opacity="0.71"/>
<rect x="213.408" y="46" width="72.1413" height="31" fill="#9A5858" fill-opacity="0.71"/>
<rect x="213.408" y="114" width="72.1413" height="31" fill="#9A5858" fill-opacity="0.71"/>
<rect x="109.35" y="12" width="72.1413" height="31" fill="#9A5858" fill-opacity="0.71"/>
<rect x="109.35" y="80" width="72.1413" height="31" fill="#9A5858" fill-opacity="0.71"/>
<rect x="109.35" y="148" width="72.1413" height="31" fill="#9A5858" fill-opacity="0.71"/>
<rect x="139.08" y="46" width="72.1413" height="31" fill="#9A5858" fill-opacity="0.71"/>
<rect x="139.08" y="114" width="72.1413" height="31" fill="#9A5858" fill-opacity="0.71"/>
<rect x="139.08" y="182" width="72.1413" height="31" fill="#9A5858" fill-opacity="0.71"/>
<rect x="1583.53" y="12" width="72.1413" height="31" fill="#9A5858" fill-opacity="0.46"/>
<rect x="1583.53" y="80" width="72.1413" height="31" fill="#9A5858" fill-opacity="0.46"/>
<rect x="1583.53" y="148" width="72.1413" height="31" fill="#9A5858" fill-opacity="0.46"/>
<rect x="1611.68" y="46" width="72.1413" height="31" fill="#9A5858" fill-opacity="0.46"/>
<rect x="1611.68" y="114" width="72.1413" height="31" fill="#9A5858" fill-opacity="0.46"/>
<rect x="1509.2" y="12" width="72.1413" height="31" fill="#9A5858" fill-opacity="0.46"/>
<rect x="1509.2" y="80" width="72.1413" height="31" fill="#9A5858" fill-opacity="0.46"/>
<rect x="1509.2" y="148" width="72.1413" height="31" fill="#9A5858" fill-opacity="0.46"/>
<rect x="1538.93" y="46" width="72.1413" height="31" fill="#9A5858" fill-opacity="0.46"/>
<rect x="1538.93" y="114" width="72.1413" height="31" fill="#9A5858" fill-opacity="0.46"/>
<rect x="1538.93" y="182" width="72.1413" height="31" fill="#9A5858" fill-opacity="0.46"/>
<rect x="993.334" y="12" width="72.1413" height="31" fill="#9A5858" fill-opacity="0.46"/>
<rect x="993.334" y="80" width="72.1413" height="31" fill="#9A5858" fill-opacity="0.46"/>
<rect x="993.334" y="148" width="72.1413" height="31" fill="#9A5858" fill-opacity="0.46"/>
<rect x="1023.06" y="46" width="72.1413" height="31" fill="#9A5858" fill-opacity="0.46"/>
<rect x="1023.06" y="114" width="72.1413" height="31" fill="#9A5858" fill-opacity="0.46"/>
<rect x="920.061" y="12" width="72.1413" height="31" fill="#9A5858" fill-opacity="0.46"/>
<rect x="920.061" y="80" width="72.1413" height="31" fill="#9A5858" fill-opacity="0.46"/>
<rect x="920.061" y="148" width="72.1413" height="31" fill="#9A5858" fill-opacity="0.46"/>
<rect x="948.736" y="46" width="72.1413" height="31" fill="#9A5858" fill-opacity="0.46"/>
<rect x="948.736" y="114" width="72.1413" height="31" fill="#9A5858" fill-opacity="0.46"/>
<rect x="948.736" y="182" width="72.1413" height="31" fill="#9A5858" fill-opacity="0.46"/>
<rect x="2393.18" y="12" width="72.1413" height="31" fill="#9A5858" fill-opacity="0.46"/>
<rect x="2393.18" y="80" width="72.1413" height="31" fill="#9A5858" fill-opacity="0.46"/>
<rect x="2393.18" y="148" width="72.1413" height="31" fill="#9A5858" fill-opacity="0.46"/>
<rect x="2422.92" y="46" width="72.1413" height="31" fill="#9A5858" fill-opacity="0.46"/>
<rect x="2422.92" y="114" width="72.1413" height="31" fill="#9A5858" fill-opacity="0.46"/>
<rect x="2318.86" y="12" width="72.1413" height="31" fill="#9A5858" fill-opacity="0.46"/>
<rect x="2318.86" y="80" width="72.1413" height="31" fill="#9A5858" fill-opacity="0.46"/>
<rect x="2318.86" y="148" width="72.1413" height="31" fill="#9A5858" fill-opacity="0.46"/>
<rect x="2348.59" y="46" width="72.1413" height="31" fill="#9A5858" fill-opacity="0.46"/>
<rect x="2348.59" y="114" width="72.1413" height="31" fill="#9A5858" fill-opacity="0.46"/>
<rect x="2348.59" y="182" width="72.1413" height="31" fill="#9A5858" fill-opacity="0.46"/>
<rect x="478.529" y="12" width="72.1413" height="31" fill="#9A5858" fill-opacity="0.46"/>
<rect x="478.529" y="80" width="72.1413" height="31" fill="#9A5858" fill-opacity="0.46"/>
<rect x="478.529" y="148" width="72.1413" height="31" fill="#9A5858" fill-opacity="0.46"/>
<rect x="506.68" y="46" width="72.1413" height="31" fill="#9A5858" fill-opacity="0.46"/>
<rect x="506.68" y="114" width="72.1413" height="31" fill="#9A5858" fill-opacity="0.46"/>
<rect x="404.201" y="12" width="72.1413" height="31" fill="#9A5858" fill-opacity="0.46"/>
<rect x="404.201" y="80" width="72.1413" height="31" fill="#9A5858" fill-opacity="0.46"/>
<rect x="404.201" y="148" width="72.1413" height="31" fill="#9A5858" fill-opacity="0.46"/>
<rect x="433.934" y="46" width="72.1413" height="31" fill="#9A5858" fill-opacity="0.46"/>
<rect x="433.934" y="114" width="72.1413" height="31" fill="#9A5858" fill-opacity="0.46"/>
<rect x="433.934" y="182" width="72.1413" height="31" fill="#9A5858" fill-opacity="0.46"/>
<rect x="1876.8" y="12" width="72.1413" height="31" fill="#9A5858" fill-opacity="0.9"/>
<rect x="1876.8" y="80" width="72.1413" height="31" fill="#9A5858" fill-opacity="0.9"/>
<rect x="1876.8" y="148" width="72.1413" height="31" fill="#9A5858" fill-opacity="0.9"/>
<rect x="1906.53" y="46" width="72.1413" height="31" fill="#9A5858" fill-opacity="0.9"/>
<rect x="1906.53" y="114" width="72.1413" height="31" fill="#9A5858" fill-opacity="0.9"/>
<rect x="1804.05" y="12" width="72.1413" height="31" fill="#9A5858" fill-opacity="0.9"/>
<rect x="1804.05" y="80" width="72.1413" height="31" fill="#9A5858" fill-opacity="0.9"/>
<rect x="1804.05" y="148" width="72.1413" height="31" fill="#9A5858" fill-opacity="0.9"/>
<rect x="1832.2" y="46" width="72.1413" height="31" fill="#9A5858" fill-opacity="0.9"/>
<rect x="1832.2" y="114" width="72.1413" height="31" fill="#9A5858" fill-opacity="0.9"/>
<rect x="1832.2" y="182" width="72.1413" height="31" fill="#9A5858" fill-opacity="0.9"/>
<rect x="1288.12" y="12" width="72.1413" height="31" fill="#9A5858" fill-opacity="0.9"/>
<rect x="1288.12" y="80" width="72.1413" height="31" fill="#9A5858" fill-opacity="0.9"/>
<rect x="1288.12" y="148" width="72.1413" height="31" fill="#9A5858" fill-opacity="0.9"/>
<rect x="1317.85" y="46" width="72.1413" height="31" fill="#9A5858" fill-opacity="0.9"/>
<rect x="1317.85" y="114" width="72.1413" height="31" fill="#9A5858" fill-opacity="0.9"/>
<rect x="1213.79" y="12" width="72.1413" height="31" fill="#9A5858" fill-opacity="0.9"/>
<rect x="1213.79" y="80" width="72.1413" height="31" fill="#9A5858" fill-opacity="0.9"/>
<rect x="1213.79" y="148" width="72.1413" height="31" fill="#9A5858" fill-opacity="0.9"/>
<rect x="1243.53" y="46" width="72.1413" height="31" fill="#9A5858" fill-opacity="0.9"/>
<rect x="1243.53" y="114" width="72.1413" height="31" fill="#9A5858" fill-opacity="0.9"/>
<rect x="1243.53" y="182" width="72.1413" height="31" fill="#9A5858" fill-opacity="0.9"/>
<rect x="2759.66" y="12" width="72.1413" height="31" fill="#9A5858" fill-opacity="0.46"/>
<rect x="2759.66" y="80" width="72.1413" height="31" fill="#9A5858" fill-opacity="0.46"/>
<rect x="2759.66" y="148" width="72.1413" height="31" fill="#9A5858" fill-opacity="0.46"/>
<rect x="35.459" y="12" width="72.1413" height="31" fill="#9A5858" fill-opacity="0.46"/>
<rect x="35.459" y="80" width="72.1413" height="31" fill="#9A5858" fill-opacity="0.46"/>
<rect x="35.459" y="148" width="72.1413" height="31" fill="#9A5858" fill-opacity="0.46"/>
<rect x="65.1914" y="46" width="72.1413" height="31" fill="#9A5858" fill-opacity="0.46"/>
<rect x="65.1914" y="114" width="72.1413" height="31" fill="#9A5858" fill-opacity="0.46"/>
<rect x="-38.8691" y="12" width="72.1413" height="31" fill="#9A5858" fill-opacity="0.46"/>
<rect x="-38.8691" y="80" width="72.1413" height="31" fill="#9A5858" fill-opacity="0.46"/>
<rect x="-38.8691" y="148" width="72.1413" height="31" fill="#9A5858" fill-opacity="0.46"/>
<rect x="-9.13867" y="46" width="72.1413" height="31" fill="#9A5858" fill-opacity="0.46"/>
<rect x="-9.13867" y="114" width="72.1413" height="31" fill="#9A5858" fill-opacity="0.46"/>
<rect x="-9.13867" y="182" width="72.1413" height="31" fill="#9A5858" fill-opacity="0.46"/>
<rect x="1435.31" y="12" width="72.1413" height="31" fill="#9A5858" fill-opacity="0.46"/>
<rect x="1435.31" y="80" width="72.1413" height="31" fill="#9A5858" fill-opacity="0.46"/>
<rect x="1435.31" y="148" width="72.1413" height="31" fill="#9A5858" fill-opacity="0.46"/>
<rect x="1465.04" y="46" width="72.1413" height="31" fill="#9A5858" fill-opacity="0.46"/>
<rect x="1465.04" y="114" width="72.1413" height="31" fill="#9A5858" fill-opacity="0.46"/>
<rect x="1362.56" y="12" width="72.1413" height="31" fill="#9A5858" fill-opacity="0.46"/>
<rect x="1362.56" y="80" width="72.1413" height="31" fill="#9A5858" fill-opacity="0.46"/>
<rect x="1362.56" y="148" width="72.1413" height="31" fill="#9A5858" fill-opacity="0.46"/>
<rect x="1390.71" y="46" width="72.1413" height="31" fill="#9A5858" fill-opacity="0.46"/>
<rect x="1390.71" y="114" width="72.1413" height="31" fill="#9A5858" fill-opacity="0.46"/>
<rect x="1390.71" y="182" width="72.1413" height="31" fill="#9A5858" fill-opacity="0.46"/>
<rect x="846.396" y="12" width="72.1413" height="31" fill="#9A5858" fill-opacity="0.9"/>
<rect x="846.396" y="80" width="72.1413" height="31" fill="#9A5858" fill-opacity="0.9"/>
<rect x="846.396" y="148" width="72.1413" height="31" fill="#9A5858" fill-opacity="0.9"/>
<rect x="876.127" y="46" width="72.1413" height="31" fill="#9A5858" fill-opacity="0.9"/>
<rect x="876.127" y="114" width="72.1413" height="31" fill="#9A5858" fill-opacity="0.9"/>
<rect x="772.068" y="12" width="72.1413" height="31" fill="#9A5858" fill-opacity="0.9"/>
<rect x="772.068" y="80" width="72.1413" height="31" fill="#9A5858" fill-opacity="0.9"/>
<rect x="772.068" y="148" width="72.1413" height="31" fill="#9A5858" fill-opacity="0.9"/>
<rect x="801.799" y="46" width="72.1413" height="31" fill="#9A5858" fill-opacity="0.9"/>
<rect x="801.799" y="114" width="72.1413" height="31" fill="#9A5858" fill-opacity="0.9"/>
<rect x="801.799" y="182" width="72.1413" height="31" fill="#9A5858" fill-opacity="0.9"/>
<rect x="2246.25" y="12" width="72.1413" height="31" fill="#9A5858" fill-opacity="0.9"/>
<rect x="2246.25" y="80" width="72.1413" height="31" fill="#9A5858" fill-opacity="0.9"/>
<rect x="2246.25" y="148" width="72.1413" height="31" fill="#9A5858" fill-opacity="0.9"/>
<rect x="2274.92" y="46" width="72.1413" height="31" fill="#9A5858" fill-opacity="0.9"/>
<rect x="2274.92" y="114" width="72.1413" height="31" fill="#9A5858" fill-opacity="0.9"/>
<rect x="2171.92" y="12" width="72.1413" height="31" fill="#9A5858" fill-opacity="0.9"/>
<rect x="2171.92" y="80" width="72.1413" height="31" fill="#9A5858" fill-opacity="0.9"/>
<rect x="2171.92" y="148" width="72.1413" height="31" fill="#9A5858" fill-opacity="0.9"/>
<rect x="2201.65" y="46" width="72.1413" height="31" fill="#9A5858" fill-opacity="0.9"/>
<rect x="2201.65" y="114" width="72.1413" height="31" fill="#9A5858" fill-opacity="0.9"/>
<rect x="2201.65" y="182" width="72.1413" height="31" fill="#9A5858" fill-opacity="0.9"/>
<rect x="330.312" y="12" width="72.1413" height="31" fill="#9A5858" fill-opacity="0.46"/>
<rect x="330.312" y="80" width="72.1413" height="31" fill="#9A5858" fill-opacity="0.46"/>
<rect x="330.312" y="148" width="72.1413" height="31" fill="#9A5858" fill-opacity="0.46"/>
<rect x="360.043" y="46" width="72.1413" height="31" fill="#9A5858" fill-opacity="0.46"/>
<rect x="360.043" y="114" width="72.1413" height="31" fill="#9A5858" fill-opacity="0.46"/>
<rect x="257.566" y="12" width="72.1413" height="31" fill="#9A5858" fill-opacity="0.46"/>
<rect x="257.566" y="80" width="72.1413" height="31" fill="#9A5858" fill-opacity="0.46"/>
<rect x="257.566" y="148" width="72.1413" height="31" fill="#9A5858" fill-opacity="0.46"/>
<rect x="285.715" y="46" width="72.1413" height="31" fill="#9A5858" fill-opacity="0.46"/>
<rect x="285.715" y="114" width="72.1413" height="31" fill="#9A5858" fill-opacity="0.46"/>
<rect x="285.715" y="182" width="72.1413" height="31" fill="#9A5858" fill-opacity="0.46"/>
<rect x="1730.16" y="12" width="72.1413" height="31" fill="#9A5858" fill-opacity="0.9"/>
<rect x="1730.16" y="80" width="72.1413" height="31" fill="#9A5858" fill-opacity="0.9"/>
<rect x="1730.16" y="148" width="72.1413" height="31" fill="#9A5858" fill-opacity="0.9"/>
<rect x="1759.89" y="46" width="72.1413" height="31" fill="#9A5858" fill-opacity="0.9"/>
<rect x="1759.89" y="114" width="72.1413" height="31" fill="#9A5858" fill-opacity="0.9"/>
<rect x="1655.84" y="12" width="72.1413" height="31" fill="#9A5858" fill-opacity="0.9"/>
<rect x="1655.84" y="80" width="72.1413" height="31" fill="#9A5858" fill-opacity="0.9"/>
<rect x="1655.84" y="148" width="72.1413" height="31" fill="#9A5858" fill-opacity="0.9"/>
<rect x="1685.57" y="46" width="72.1413" height="31" fill="#9A5858" fill-opacity="0.9"/>
<rect x="1685.57" y="114" width="72.1413" height="31" fill="#9A5858" fill-opacity="0.9"/>
<rect x="1685.57" y="182" width="72.1413" height="31" fill="#9A5858" fill-opacity="0.9"/>
<rect x="1141.71" y="12" width="72.1413" height="31" fill="#9A5858" fill-opacity="0.9"/>
<rect x="1141.71" y="80" width="72.1413" height="31" fill="#9A5858" fill-opacity="0.9"/>
<rect x="1141.71" y="148" width="72.1413" height="31" fill="#9A5858" fill-opacity="0.9"/>
<rect x="1169.86" y="46" width="72.1413" height="31" fill="#9A5858" fill-opacity="0.9"/>
<rect x="1169.86" y="114" width="72.1413" height="31" fill="#9A5858" fill-opacity="0.9"/>
<rect x="1067.38" y="12" width="72.1413" height="31" fill="#9A5858" fill-opacity="0.9"/>
<rect x="1067.38" y="80" width="72.1413" height="31" fill="#9A5858" fill-opacity="0.9"/>
<rect x="1067.38" y="148" width="72.1413" height="31" fill="#9A5858" fill-opacity="0.9"/>
<rect x="1097.12" y="46" width="72.1413" height="31" fill="#9A5858" fill-opacity="0.9"/>
<rect x="1097.12" y="114" width="72.1413" height="31" fill="#9A5858" fill-opacity="0.9"/>
<rect x="1097.12" y="182" width="72.1413" height="31" fill="#9A5858" fill-opacity="0.9"/>
<rect x="2539.98" y="12" width="72.1413" height="31" fill="#9A5858" fill-opacity="0.9"/>
<rect x="2539.98" y="80" width="72.1413" height="31" fill="#9A5858" fill-opacity="0.9"/>
<rect x="2539.98" y="148" width="72.1413" height="31" fill="#9A5858" fill-opacity="0.9"/>
<rect x="2569.71" y="46" width="72.1413" height="31" fill="#9A5858" fill-opacity="0.9"/>
<rect x="2569.71" y="114" width="72.1413" height="31" fill="#9A5858" fill-opacity="0.9"/>
<rect x="2467.24" y="12" width="72.1413" height="31" fill="#9A5858" fill-opacity="0.9"/>
<rect x="2467.24" y="80" width="72.1413" height="31" fill="#9A5858" fill-opacity="0.9"/>
<rect x="2467.24" y="148" width="72.1413" height="31" fill="#9A5858" fill-opacity="0.9"/>
<rect x="2495.38" y="46" width="72.1413" height="31" fill="#9A5858" fill-opacity="0.9"/>
<rect x="2495.38" y="114" width="72.1413" height="31" fill="#9A5858" fill-opacity="0.9"/>
<rect x="2495.38" y="182" width="72.1413" height="31" fill="#9A5858" fill-opacity="0.9"/>
<rect x="2687.99" y="12" width="72.1413" height="31" fill="#9A5858" fill-opacity="0.46"/>
<rect x="2687.99" y="80" width="72.1413" height="31" fill="#9A5858" fill-opacity="0.46"/>
<rect x="2687.99" y="148" width="72.1413" height="31" fill="#9A5858" fill-opacity="0.46"/>
<rect x="2716.14" y="46" width="72.1413" height="31" fill="#9A5858" fill-opacity="0.46"/>
<rect x="2716.14" y="114" width="72.1413" height="31" fill="#9A5858" fill-opacity="0.46"/>
<rect x="2613.66" y="12" width="72.1413" height="31" fill="#9A5858" fill-opacity="0.46"/>
<rect x="2613.66" y="80" width="72.1413" height="31" fill="#9A5858" fill-opacity="0.46"/>
<rect x="2613.66" y="148" width="72.1413" height="31" fill="#9A5858" fill-opacity="0.46"/>
<rect x="2643.39" y="46" width="72.1413" height="31" fill="#9A5858" fill-opacity="0.46"/>
<rect x="2643.39" y="114" width="72.1413" height="31" fill="#9A5858" fill-opacity="0.46"/>
<rect x="2643.39" y="182" width="72.1413" height="31" fill="#9A5858" fill-opacity="0.46"/>
<rect x="625.166" y="12" width="72.1413" height="31" fill="#9A5858" fill-opacity="0.9"/>
<rect x="625.166" y="80" width="72.1413" height="31" fill="#9A5858" fill-opacity="0.9"/>
<rect x="625.166" y="148" width="72.1413" height="31" fill="#9A5858" fill-opacity="0.9"/>
<rect x="654.898" y="46" width="72.1413" height="31" fill="#9A5858" fill-opacity="0.9"/>
<rect x="654.898" y="114" width="72.1413" height="31" fill="#9A5858" fill-opacity="0.9"/>
<rect x="550.84" y="12" width="72.1413" height="31" fill="#9A5858" fill-opacity="0.9"/>
<rect x="550.84" y="80" width="72.1413" height="31" fill="#9A5858" fill-opacity="0.9"/>
<rect x="550.84" y="148" width="72.1413" height="31" fill="#9A5858" fill-opacity="0.9"/>
<rect x="580.57" y="46" width="72.1413" height="31" fill="#9A5858" fill-opacity="0.9"/>
<rect x="580.57" y="114" width="72.1413" height="31" fill="#9A5858" fill-opacity="0.9"/>
<rect x="580.57" y="182" width="72.1413" height="31" fill="#9A5858" fill-opacity="0.9"/>
<rect x="2025.02" y="12" width="72.1413" height="31" fill="#9A5858" fill-opacity="0.46"/>
<rect x="2025.02" y="80" width="72.1413" height="31" fill="#9A5858" fill-opacity="0.46"/>
<rect x="2025.02" y="148" width="72.1413" height="31" fill="#9A5858" fill-opacity="0.46"/>
<rect x="2053.17" y="46" width="72.1413" height="31" fill="#9A5858" fill-opacity="0.46"/>
<rect x="2053.17" y="114" width="72.1413" height="31" fill="#9A5858" fill-opacity="0.46"/>
<rect x="1950.69" y="12" width="72.1413" height="31" fill="#9A5858" fill-opacity="0.46"/>
<rect x="1950.69" y="80" width="72.1413" height="31" fill="#9A5858" fill-opacity="0.46"/>
<rect x="1950.69" y="148" width="72.1413" height="31" fill="#9A5858" fill-opacity="0.46"/>
<rect x="1980.42" y="46" width="72.1413" height="31" fill="#9A5858" fill-opacity="0.46"/>
<rect x="1980.42" y="114" width="72.1413" height="31" fill="#9A5858" fill-opacity="0.46"/>
<rect x="1980.42" y="182" width="72.1413" height="31" fill="#9A5858" fill-opacity="0.46"/>
</g>
</svg>
