<svg width="367" height="283" viewBox="0 0 367 283" fill="none" xmlns="http://www.w3.org/2000/svg">
<g filter="url(#filter0_d_4309_32469)">
<path d="M329.117 114.001C325.293 127.492 300.908 130.312 289.193 130.035C271.48 124.691 231.556 115.881 213.562 123.401C200.292 108.583 132.496 110.592 100.257 113.448C81.2327 101.745 42.0585 76.6247 37.5601 69.7686C31.937 61.1986 46.557 28.5771 40.0905 14.478C33.6239 0.378904 11.9751 -4.04435 8.03891 3.9728C4.10275 11.9899 18.4416 23.3245 23.7835 28.5771C29.1255 33.8297 20.4097 56.2224 20.1285 69.7686C19.8474 83.3148 38.6847 101.008 53.5859 107.09C65.5068 111.955 67.7372 125.704 67.3624 131.971C62.6765 134.919 53.3609 144.411 53.5859 158.787C53.8108 173.162 38.1224 185.05 30.2501 189.196C24.627 189.657 12.5374 195.057 9.16354 212.971C4.94623 235.364 -6.29996 261.627 4.66507 263.839C15.6301 266.05 22.9401 241.17 26.3139 229.559C29.6878 217.948 73.2666 206.336 80.8578 209.377C88.4489 212.418 73.5478 229.559 73.2666 238.405C73.0417 245.482 93.9783 262.18 104.475 269.644C109.348 269.921 120.725 270.805 127.248 272.132C135.402 273.791 150.303 261.627 130.622 259.415C110.941 257.204 118.251 252.504 104.475 239.787C109.873 207.276 171.764 203.941 202.035 206.336C198.942 224.306 193.488 261.682 196.412 267.433C200.067 274.62 216.655 275.45 219.467 272.132C221.716 269.478 218.529 264.023 216.655 261.627C214.125 260.337 210.582 253.886 216.655 238.405C225.427 205.231 256.298 211.497 270.637 218.777C275.697 218.869 291.779 224.859 315.621 248.081C345.424 277.108 360.606 272.132 364.823 267.709C369.041 263.286 367.354 257.48 357.794 257.48C350.147 257.48 322.369 227.07 309.436 211.866C305.875 202.835 300.326 182.838 306.624 175.097C314.497 165.421 339.8 175.374 345.986 175.097C352.171 174.821 355.545 168.186 355.264 161.828C354.983 155.469 346.548 159.892 348.516 149.664C350.091 141.481 342.05 134.459 337.832 131.971C342.893 127.087 352.115 117.374 348.516 117.595C344.917 117.816 336.52 122.295 332.772 124.506C333.147 115.383 332.94 100.51 329.117 114.001Z" fill="#430202"/>
</g>
<defs>
<filter id="filter0_d_4309_32469" x="0" y="0" width="367" height="283" filterUnits="userSpaceOnUse" color-interpolation-filters="sRGB">
<feFlood flood-opacity="0" result="BackgroundImageFix"/>
<feColorMatrix in="SourceAlpha" type="matrix" values="0 0 0 0 0 0 0 0 0 0 0 0 0 0 0 0 0 0 127 0" result="hardAlpha"/>
<feOffset dy="9"/>
<feComposite in2="hardAlpha" operator="out"/>
<feColorMatrix type="matrix" values="0 0 0 0 0 0 0 0 0 0 0 0 0 0 0 0 0 0 0.25 0"/>
<feBlend mode="normal" in2="BackgroundImageFix" result="effect1_dropShadow_4309_32469"/>
<feBlend mode="normal" in="SourceGraphic" in2="effect1_dropShadow_4309_32469" result="shape"/>
</filter>
</defs>
</svg>
