<svg width="393" height="708" viewBox="0 0 393 708" fill="none" xmlns="http://www.w3.org/2000/svg" xmlns:xlink="http://www.w3.org/1999/xlink">
<rect width="393" height="708" fill="#F2DAAD"/>
<rect width="393" height="708" fill="url(#pattern0_6534_35980)" fill-opacity="0.14"/>
<defs>
<pattern id="pattern0_6534_35980" patternUnits="userSpaceOnUse" patternTransform="matrix(173.763 0 0 348.612 7.66481 9.76367)" preserveAspectRatio="none" viewBox="7.66481 9.76367 173.763 348.612" width="1" height="1">
<use xlink:href="#pattern0_6534_35980_inner" transform="translate(-173.763 0)"/>
<g id="pattern0_6534_35980_inner">
<path d="M22.9963 19.3436C24.8696 17.0208 27.5132 10.5561 23.6293 9.94887C19.7453 9.34168 16.456 10.2353 14.5826 12.5581C12.7079 14.8826 13.0723 18.2838 15.3959 20.1578C17.7196 22.0318 21.1216 21.6681 22.9963 19.3436ZM31.5128 35.2965C31.5111 34.7002 31.4337 33.9491 31.3112 33.1281C31.3685 30.4613 30.2423 27.7977 28.0057 25.994C26.0151 24.3886 23.5459 23.7883 21.198 24.1114C19.9755 24.1571 18.8446 24.2521 18.0333 24.4262L17.4933 24.539C14.9759 25.0629 11.8431 25.7142 9.21965 28.9909C6.78379 32.0341 7.26262 36.497 10.2881 38.937C11.1263 39.616 12.11 40.0921 13.1624 40.3283C14.2149 40.5645 16.1414 40.7051 16.6702 40.0493C16.1414 40.7051 16.5491 42.4476 17.0031 43.4264C17.4571 44.4052 18.1311 45.2658 18.9727 45.941C21.9969 48.38 26.4592 47.9028 28.9182 44.8775C31.5649 41.6195 31.5374 38.4195 31.5166 35.8486L31.5128 35.2965Z" fill="#B98342"/>
<path d="M44.9761 27.1647C46.5235 31.172 46.2164 34.2366 44.3431 36.5594C42.4684 38.8839 39.0664 39.2476 36.7428 37.3736C34.4191 35.4996 34.0547 32.0984 35.9294 29.7739C37.8028 27.451 43.4287 23.1573 44.9761 27.1647Z" fill="#B98342"/>
<path d="M30.4601 23.5465C33.0202 25.6111 36.7692 25.2095 38.8338 22.6495C40.8984 20.0895 41.9791 13.9265 39.7006 12.0889C37.422 10.2513 31.6278 12.6128 29.5631 15.1729C27.4985 17.7329 27.9001 21.4819 30.4601 23.5465Z" fill="#B98342"/>
</g>
<use xlink:href="#pattern0_6534_35980_inner" transform="translate(-86.8815 174.306)"/>
<use xlink:href="#pattern0_6534_35980_inner" transform="translate(86.8815 174.306)"/>
</pattern></defs>
</svg>
